<?xml version="1.0" standalone="no"?>
<!DOCTYPE svg PUBLIC "-//W3C//DTD SVG 20010904//EN"
 "http://www.w3.org/TR/2001/REC-SVG-20010904/DTD/svg10.dtd">
<svg version="1.0" xmlns="http://www.w3.org/2000/svg"
 width="50px" height="10px" viewBox="0 0 795.000000 322.000000"
 preserveAspectRatio="xMidYMid meet">
<metadata>
Created by potrace 1.16, written by Peter Selinger 2001-2019
</metadata>
<g transform="translate(0.000000,322.000000) scale(0.100000,-0.100000)"
fill="#fff" stroke="none">
<path d="M1262 2700 c-220 -48 -385 -141 -541 -306 -137 -143 -217 -296 -262
-499 -21 -93 -18 -333 5 -430 87 -374 376 -674 744 -772 84 -23 118 -26 252
-27 172 -1 257 13 390 66 245 97 466 311 567 550 60 143 77 233 77 403 1 150
-8 213 -44 325 -58 180 -166 337 -333 485 -34 30 -163 108 -223 136 -181 82
-441 110 -632 69z m377 -622 c-7 -12 -27 -46 -46 -75 l-34 -53 -295 0 -296 0
14 23 c9 12 30 46 47 75 l33 52 294 0 295 0 -12 -22z m351 -335 c118 -190 215
-351 215 -357 0 -6 -10 -10 -22 -9 -13 0 -49 1 -80 2 l-58 2 -43 69 -43 69
-130 3 -130 3 43 68 c42 66 55 74 106 68 6 -1 12 3 12 8 0 12 -83 150 -90 151
-3 0 -65 -98 -139 -218 -74 -119 -136 -218 -137 -220 -3 -5 -736 -3 -741 1 -2
3 34 66 81 141 l85 136 -59 0 c-42 0 -60 4 -60 13 0 6 18 40 40 75 l40 62 285
0 c157 0 285 -3 285 -6 0 -3 -19 -37 -42 -75 l-43 -69 -138 0 -137 0 -35 -55
c-60 -93 -74 -86 155 -83 l203 3 176 282 c97 156 178 283 181 283 3 -1 102
-156 220 -347z"/>
<path d="M4705 2506 l-130 -42 -3 -772 -2 -772 140 0 140 0 0 815 c0 448 -3
815 -7 814 -5 0 -66 -20 -138 -43z"/>
<path d="M3220 1690 l0 -771 153 3 152 3 0 278 0 277 215 0 c310 0 418 29 539
145 235 224 186 625 -94 772 -115 60 -142 63 -574 63 l-391 0 0 -770z m754
488 c58 -18 131 -91 146 -148 23 -85 -9 -185 -74 -235 -61 -46 -111 -55 -323
-55 l-193 0 0 225 0 225 201 0 c131 0 216 -4 243 -12z"/>
<path d="M5444 2025 c-218 -47 -383 -213 -429 -432 -49 -231 46 -475 232 -599
97 -64 172 -87 288 -88 119 -1 202 23 293 84 l57 39 3 -55 3 -54 139 0 140 0
0 550 0 550 -140 0 -140 0 0 -61 0 -61 -35 31 c-51 44 -127 80 -204 97 -80 17
-127 17 -207 -1z m283 -276 c106 -51 163 -149 163 -279 0 -183 -127 -314 -305
-314 -313 1 -423 430 -150 590 88 51 190 53 292 3z"/>
<path d="M6243 2013 c2 -5 18 -37 35 -73 16 -36 121 -249 232 -474 l201 -410
-156 -307 c-85 -169 -155 -310 -155 -313 0 -3 68 -6 151 -6 l150 0 156 318
c85 174 214 436 285 582 72 146 177 361 234 478 l103 212 -148 0 -148 0 -30
-67 c-59 -131 -277 -573 -282 -572 -3 0 -76 144 -161 319 l-155 319 -158 1
c-87 0 -156 -3 -154 -7z"/>
</g>
</svg>
