<?xml version="1.0" standalone="no"?>
<!DOCTYPE svg PUBLIC "-//W3C//DTD SVG 20010904//EN"
 "http://www.w3.org/TR/2001/REC-SVG-20010904/DTD/svg10.dtd">
<svg version="1.0" xmlns="http://www.w3.org/2000/svg"
 width="80px" height="80px" viewBox="0 0 866.000000 650.000000"
 preserveAspectRatio="xMidYMid meet">
<metadata>
Created by potrace 1.16, written by Peter Selinger 2001-2019
</metadata>
<g transform="translate(0.000000,650.000000) scale(0.100000,-0.100000)"
fill="#fff" stroke="none">
<path d="M749 4308 c-1 -2 -2 -319 -3 -705 l-1 -703 210 0 c234 0 266 7 317
69 37 43 43 92 43 331 0 223 -4 245 -61 289 l-26 21 30 35 c48 54 54 95 50
324 -4 245 -11 269 -94 311 -47 24 -58 25 -256 28 -115 2 -209 2 -209 0z m355
-194 c13 -13 16 -45 16 -199 0 -222 4 -215 -111 -215 l-79 0 0 215 0 215 79 0
c59 0 84 -4 95 -16z m11 -618 c14 -21 16 -54 13 -210 -2 -135 -7 -189 -16
-198 -9 -9 -41 -13 -95 -13 l-82 0 -3 223 -2 222 85 0 c78 0 86 -2 100 -24z"/>
<path d="M1646 4288 c-9 -42 -226 -1363 -226 -1375 0 -10 25 -13 94 -13 l94 0
23 175 23 175 143 0 c140 0 143 0 148 -22 5 -26 45 -305 45 -319 0 -5 43 -9
96 -9 l96 0 -5 28 c-3 15 -16 93 -29 175 l-23 147 -31 0 c-26 0 -32 4 -37 28
-3 15 -42 253 -87 530 l-83 502 -118 0 c-115 0 -119 -1 -123 -22z m165 -540
c21 -150 39 -285 39 -300 l0 -28 -86 0 -86 0 5 28 c3 15 22 152 43 304 21 153
40 275 42 273 2 -2 22 -127 43 -277z"/>
<path d="M2130 4220 l0 -90 90 0 90 0 0 -615 0 -615 95 0 95 0 0 615 0 615 90
0 90 0 0 90 0 90 -275 0 -275 0 0 -90z"/>
<path d="M2800 4220 l0 -90 95 0 95 0 0 -214 0 -215 -32 -3 c-31 -3 -33 -5
-32 -38 1 -19 2 -198 3 -397 l1 -363 85 0 85 0 1 203 c1 111 3 209 4 217 1 8
3 97 4 198 l1 182 35 0 35 0 0 215 0 215 90 0 90 0 0 90 0 90 -280 0 -280 0 0
-90z"/>
<path d="M3500 4005 l0 -305 -30 0 -30 0 0 -400 0 -400 265 0 265 0 0 85 0 85
-170 0 -170 0 0 315 0 315 30 0 30 0 0 305 0 305 -95 0 -95 0 0 -305z"/>
<path d="M4110 3605 l0 -705 230 0 230 0 0 85 0 85 -135 0 -135 0 0 225 0 225
135 0 135 0 0 90 0 90 -135 0 -135 0 0 215 0 215 135 0 135 0 0 90 0 90 -230
0 -230 0 0 -705z"/>
<path d="M4810 3605 l0 -705 95 0 95 0 0 310 0 310 135 0 135 0 0 90 0 90
-135 0 -135 0 0 215 0 215 135 0 135 0 0 90 0 90 -230 0 -230 0 0 -705z"/>
<path d="M5480 3605 l0 -705 95 0 95 0 0 705 0 705 -95 0 -95 0 0 -705z"/>
<path d="M5948 3918 l-3 -393 -32 -3 -33 -3 0 -310 0 -309 265 0 265 0 0 85 0
85 -167 2 -168 3 -3 223 -2 222 170 0 170 0 0 90 0 90 -140 0 -140 0 0 215 0
215 140 0 140 0 0 90 0 90 -230 0 -230 0 -2 -392z"/>
<path d="M6660 4006 l0 -305 -32 -3 -33 -3 -3 -397 -2 -398 265 0 265 0 0 85
0 85 -167 2 -168 3 -3 313 -2 312 35 0 35 0 -2 303 -3 302 -92 3 -93 3 0 -305z"/>
<path d="M7240 3606 l0 -706 208 0 c231 0 263 7 314 68 47 56 50 96 46 667
l-3 530 -25 44 c-18 32 -39 52 -75 70 -47 25 -57 26 -257 29 l-208 4 0 -706z
m362 507 c17 -15 18 -44 18 -508 0 -397 -3 -495 -14 -510 -10 -14 -30 -19 -95
-23 l-81 -5 0 532 0 531 77 0 c57 0 81 -4 95 -17z"/>
<path d="M2974 2648 c-29 -13 -43 -44 -47 -95 l-3 -43 38 0 c37 0 38 1 38 34
0 41 11 46 90 46 78 0 90 -6 90 -44 0 -27 -18 -49 -125 -156 -116 -116 -125
-127 -125 -162 0 -45 16 -49 50 -13 29 31 38 31 42 3 3 -22 7 -23 114 -26 101
-2 112 -1 116 16 3 10 2 27 -2 37 -7 18 -17 20 -109 19 -55 0 -101 1 -101 2 0
2 47 49 105 106 l105 103 0 68 c0 61 -3 71 -26 92 -25 23 -34 25 -128 24 -56
0 -111 -5 -122 -11z"/>
<path d="M3782 2650 c-44 -18 -54 -68 -50 -243 l3 -159 33 -29 c31 -27 37 -29
123 -29 162 0 172 16 167 255 l-3 167 -28 24 c-26 22 -37 24 -125 23 -53 0
-107 -4 -120 -9z m196 -222 c1 -87 1 -158 0 -159 -29 -6 -126 -9 -144 -5 -24
6 -24 6 -24 160 0 114 3 156 13 160 6 2 44 4 82 3 l70 -2 3 -157z"/>
<path d="M4661 2498 c-105 -141 -121 -166 -121 -200 l0 -38 120 0 c89 0 120
-3 121 -12 1 -7 2 -22 3 -33 1 -16 9 -21 39 -23 37 -3 37 -3 37 36 0 28 -7 45
-25 62 -14 13 -25 27 -25 32 0 4 11 8 25 8 l25 0 0 165 0 165 -39 0 c-38 0
-40 -1 -160 -162z m123 -15 c-1 -21 -3 -64 -3 -95 l-1 -58 -71 0 c-60 0 -70 2
-65 15 8 21 128 175 136 175 3 0 5 -17 4 -37z"/>
<path d="M5369 2631 c-24 -24 -29 -38 -29 -75 0 -46 0 -46 35 -46 32 0 35 3
35 29 0 43 19 52 102 49 l73 -3 3 -35 c3 -33 -5 -43 -123 -160 -116 -116 -125
-127 -125 -162 0 -46 24 -51 60 -13 13 14 27 25 32 25 4 0 8 -11 8 -25 l0 -25
116 0 115 0 -3 36 -3 37 -102 0 c-57 0 -103 3 -103 6 0 3 46 52 103 109 l102
102 0 66 c0 60 -3 68 -28 90 -26 22 -37 24 -133 24 -103 0 -106 -1 -135 -29z"/>
</g>
</svg>
