<?xml version="1.0" standalone="no"?>
<!DOCTYPE svg PUBLIC "-//W3C//DTD SVG 20010904//EN"
 "http://www.w3.org/TR/2001/REC-SVG-20010904/DTD/svg10.dtd">
<svg version="1.0" xmlns="http://www.w3.org/2000/svg"
 width="50px" height="20px" viewBox="0 0 1000.000000 600.000000"
 preserveAspectRatio="xMidYMid meet">

<g transform="translate(0.000000,600.000000) scale(0.100000,-0.100000)"
fill="#fff" stroke="none">
<path d="M252 3013 l3 -658 299 -3 c329 -3 379 3 473 48 114 56 172 156 180
310 4 71 1 95 -17 144 -29 75 -86 137 -153 166 -51 22 -51 23 -27 33 35 15 36
17 20 27 -11 7 -7 10 16 10 37 0 65 27 96 95 19 42 23 66 23 150 -1 89 -4 106
-27 151 -38 72 -106 129 -187 156 -62 21 -87 23 -384 26 l-317 3 2 -658z m513
367 c37 -35 49 -81 35 -138 -15 -62 -46 -85 -122 -90 l-58 -4 0 132 0 132 60
-4 c45 -3 66 -10 85 -28z m-365 -90 c0 -5 -4 -10 -10 -10 -5 0 -10 5 -10 10 0
6 5 10 10 10 6 0 10 -4 10 -10z m-63 -16 c-3 -3 -12 -4 -19 -1 -8 3 -5 6 6 6
11 1 17 -2 13 -5z m640 -230 c-3 -3 -12 -4 -19 -1 -8 3 -5 6 6 6 11 1 17 -2
13 -5z m-208 -149 c78 -40 82 -203 6 -263 -22 -17 -41 -22 -91 -22 l-64 0 0
150 0 150 60 0 c34 0 74 -7 89 -15z"/>
<path d="M8794 3655 c-2 -5 -3 -300 -2 -655 l3 -645 315 0 c279 0 321 2 369
18 148 50 225 160 252 362 16 124 6 539 -15 623 -23 89 -57 151 -113 203 -96
90 -221 113 -576 108 -140 -3 -231 -8 -233 -14z m506 -263 c60 -30 65 -57 65
-382 0 -305 -4 -337 -50 -380 -19 -18 -39 -24 -94 -28 l-70 -5 -3 144 c-2 79
-2 262 0 407 l3 262 57 0 c34 0 71 -7 92 -18z"/>
<path d="M1500 3645 c0 -2 -18 -82 -40 -177 -22 -95 -38 -178 -36 -185 3 -6 1
-13 -4 -15 -5 -2 -27 -79 -49 -173 -22 -93 -69 -296 -106 -449 -51 -217 -63
-281 -53 -288 7 -4 92 -7 188 -5 l175 2 11 60 c7 33 15 77 18 98 l7 37 119 0
118 0 10 -47 c6 -27 14 -66 18 -88 3 -22 11 -46 17 -52 15 -20 367 -18 367 1
0 8 -34 157 -76 333 -41 175 -106 453 -145 618 -38 165 -74 301 -79 303 -5 2
-6 10 -3 18 4 12 -29 14 -226 14 -127 0 -231 -2 -231 -5z m304 -772 l5 -33
-80 0 c-77 0 -79 1 -74 23 2 12 18 117 36 232 17 116 33 217 36 225 3 8 21
-82 39 -200 18 -118 35 -230 38 -247z m236 262 c0 -7 -36 -20 -79 -30 -23 -5
-31 -4 -27 4 11 17 106 40 106 26z"/>
<path d="M2130 3636 c0 -8 6 -17 13 -20 10 -5 10 -7 0 -12 -10 -4 -13 -41 -13
-135 l0 -129 120 0 120 0 2 -492 3 -493 180 0 180 0 3 493 2 492 120 0 120 0
0 155 0 155 -425 0 c-356 0 -425 -3 -425 -14z"/>
<path d="M3072 3498 l3 -153 120 -5 120 -5 5 -490 5 -490 175 0 175 0 3 493 2
492 125 0 126 0 -3 153 -3 152 -428 3 -428 2 3 -152z m663 72 c7 -12 -2 -12
-30 0 -19 8 -19 9 2 9 12 1 25 -3 28 -9z"/>
<path d="M4010 3046 l1 -605 72 -4 72 -3 -73 -2 -73 -2 3 -37 3 -38 375 0 375
0 3 148 3 147 -196 0 -195 0 -2 498 -3 497 -183 3 -182 2 0 -604z m425 -606
c7 -12 -2 -12 -30 0 -19 8 -19 9 2 9 12 1 25 -3 28 -9z m-217 -7 c-10 -2 -28
-2 -40 0 -13 2 -5 4 17 4 22 1 32 -1 23 -4z"/>
<path d="M4862 3003 l3 -648 395 0 395 0 3 148 3 147 -216 0 -215 0 0 110 0
109 123 3 122 3 -108 63 c-60 35 -107 66 -104 68 4 5 55 -22 179 -93 66 -38
83 -44 125 -41 l48 3 0 140 0 140 -192 3 -193 2 0 95 0 95 205 0 205 0 0 150
0 150 -390 0 -390 0 2 -647z m618 -513 c11 -8 7 -9 -15 -4 -37 8 -45 14 -19
14 10 0 26 -5 34 -10z"/>
<path d="M5742 3003 l3 -648 178 -3 177 -2 0 260 0 260 195 0 195 0 0 145 0
145 -195 0 -195 0 0 95 0 95 210 0 210 0 0 150 0 150 -390 0 -390 0 2 -647z
m592 568 c3 -4 -6 -6 -19 -3 -14 2 -25 6 -25 8 0 8 39 4 44 -5z"/>
<path d="M6612 3003 l3 -648 180 0 180 0 3 648 2 647 -185 0 -185 0 2 -647z
m298 -421 c0 -13 -12 -22 -22 -16 -10 6 -1 24 13 24 5 0 9 -4 9 -8z m-50 -16
c0 -2 -13 -6 -29 -8 -17 -2 -28 -1 -25 4 5 8 54 12 54 4z"/>
<path d="M7082 3038 l3 -613 55 -7 c30 -4 116 -12 190 -17 l135 -10 -187 5
c-187 4 -213 0 -189 -30 15 -18 772 -19 783 -2 4 6 8 73 8 148 l0 138 -212 2
-213 3 -3 108 -3 107 196 0 196 0 -3 143 -3 142 -192 3 -193 2 0 95 0 95 85 0
c73 0 85 2 85 17 0 16 1 16 13 0 11 -15 27 -17 122 -15 l110 3 0 145 0 145
-393 3 -392 2 2 -612z m347 178 c15 -59 13 -80 -3 -36 -24 65 -27 80 -18 80 5
0 15 -20 21 -44z m-219 -736 c0 -5 -4 -10 -9 -10 -6 0 -13 5 -16 10 -3 6 1 10
9 10 9 0 16 -4 16 -10z m93 -7 c-7 -2 -19 -2 -25 0 -7 3 -2 5 12 5 14 0 19 -2
13 -5z m44 1 c-3 -3 -12 -4 -19 -1 -8 3 -5 6 6 6 11 1 17 -2 13 -5z m-87 -34
c0 -5 -9 -10 -20 -10 -11 0 -20 5 -20 10 0 6 9 10 20 10 11 0 20 -4 20 -10z
m80 -4 c0 -11 -19 -15 -25 -6 -3 5 1 10 9 10 9 0 16 -2 16 -4z"/>
<path d="M7983 3610 c0 -25 2 -35 4 -22 2 12 2 32 0 45 -2 12 -4 2 -4 -23z"/>
<path d="M8010 3648 c-30 -209 -54 -1273 -29 -1289 6 -4 25 -3 42 2 18 5 37 4
48 -1 11 -6 145 -9 338 -8 l321 3 0 147 0 148 -192 2 -193 3 -3 498 -2 497
-165 0 c-91 0 -165 -1 -165 -2z"/>
</g>
</svg>
