<?xml version="1.0" standalone="no"?>
<!DOCTYPE svg PUBLIC "-//W3C//DTD SVG 20010904//EN"
 "http://www.w3.org/TR/2001/REC-SVG-20010904/DTD/svg10.dtd">
<svg version="1.0" xmlns="http://www.w3.org/2000/svg"
 width="445.000000pt" height="165.000000pt" viewBox="0 0 445.000000 165.000000"
 preserveAspectRatio="xMidYMid meet">
<metadata>
Created by potrace 1.16, written by Peter Selinger 2001-2019
</metadata>
<g transform="translate(0.000000,165.000000) scale(0.100000,-0.100000)"
fill="#fff" stroke="none">
<path d="M0 1044 l0 -446 135 4 c116 3 138 6 162 24 44 33 55 81 51 236 -3
136 -3 137 -32 167 -17 17 -25 31 -18 31 6 0 18 13 27 30 23 44 22 316 -1 349
-28 40 -73 51 -204 51 l-120 0 0 -446z m220 317 c13 -25 13 -207 0 -232 -8
-15 -22 -19 -60 -19 l-50 0 0 135 0 135 50 0 c38 0 52 -4 60 -19z m-7 -374
c15 -11 17 -28 15 -137 l-3 -125 -57 -3 -58 -3 0 141 0 140 43 0 c24 0 51 -6
60 -13z"/>
<path d="M555 1478 c-2 -7 -34 -195 -70 -418 -36 -223 -68 -417 -71 -432 l-6
-28 61 0 c34 0 61 3 61 8 0 4 7 50 15 102 8 52 15 98 15 103 0 4 40 7 90 7 85
0 90 -1 95 -22 5 -25 25 -173 25 -189 0 -5 27 -9 60 -9 42 0 60 4 59 13 0 6
-8 57 -17 112 -15 86 -20 100 -38 103 -18 3 -24 30 -74 332 l-53 330 -74 0
c-50 0 -75 -4 -78 -12z m128 -540 c-2 -5 -26 -8 -54 -8 -42 0 -49 3 -49 19 0
26 39 299 47 331 4 16 16 -40 33 -155 14 -99 25 -183 23 -187z"/>
<path d="M860 1435 l0 -55 55 0 55 0 0 -390 0 -390 60 0 60 0 0 390 0 390 55
0 55 0 0 55 0 55 -170 0 -170 0 0 -55z"/>
<path d="M1280 1435 l0 -55 60 0 60 0 0 -135 c0 -128 -1 -135 -20 -135 -19 0
-20 -7 -20 -256 l0 -255 53 3 52 3 3 253 c2 244 3 252 22 252 19 0 20 7 20
135 l0 135 60 0 60 0 0 55 0 55 -175 0 -175 0 0 -55z"/>
<path d="M1720 1300 c0 -183 -1 -190 -20 -190 -19 0 -20 -7 -20 -255 l0 -255
165 0 165 0 0 60 0 60 -105 0 -105 0 0 195 c0 188 1 195 20 195 19 0 20 7 20
190 l0 190 -60 0 -60 0 0 -190z"/>
<path d="M2100 1045 l0 -445 145 0 145 0 0 60 0 60 -85 0 -85 0 0 140 0 140
85 0 85 0 0 55 0 55 -85 0 -85 0 0 135 0 135 85 0 85 0 0 55 0 55 -145 0 -145
0 0 -445z"/>
<path d="M2540 1045 l0 -446 58 3 57 3 3 198 2 197 85 0 85 0 0 55 0 55 -85 0
-85 0 0 135 0 135 85 0 85 0 0 55 0 55 -145 0 -145 0 0 -445z"/>
<path d="M2960 1045 l0 -445 60 0 60 0 0 445 0 445 -60 0 -60 0 0 -445z"/>
<path d="M3250 1245 c0 -239 0 -245 -20 -245 -20 0 -20 -5 -18 -197 l3 -198
163 -3 162 -2 0 60 0 60 -105 0 -105 0 0 140 0 140 105 0 105 0 0 55 0 55 -85
0 -85 0 0 135 0 135 85 0 85 0 0 55 0 55 -145 0 -145 0 0 -245z"/>
<path d="M3700 1300 c0 -183 -1 -190 -20 -190 -19 0 -20 -7 -20 -255 l0 -255
165 0 166 0 -3 58 -3 57 -102 3 -103 3 0 194 c0 188 1 195 20 195 19 0 20 7
20 190 l0 190 -60 0 -60 0 0 -190z"/>
<path d="M4060 1044 l0 -446 138 4 c112 3 144 7 166 21 53 35 56 56 56 424 0
302 -2 342 -18 373 -28 57 -67 70 -214 70 l-128 0 0 -446z m229 322 c8 -9 11
-104 9 -327 l-3 -314 -57 -3 -58 -3 0 331 0 330 49 0 c29 0 53 -6 60 -14z"/>
<path d="M1400 454 c-24 -10 -40 -36 -40 -66 0 -36 37 -41 42 -5 3 20 9 22 58
22 84 0 80 -23 -20 -118 -58 -56 -80 -84 -80 -102 0 -28 12 -32 30 -10 16 19
30 19 30 0 0 -12 14 -15 70 -15 68 0 70 1 70 25 0 24 -2 25 -66 25 l-67 0 67
63 c63 59 66 64 66 108 0 30 -6 51 -16 60 -17 14 -118 23 -144 13z"/>
<path d="M1902 450 c-32 -13 -42 -49 -42 -146 0 -81 10 -120 34 -136 20 -14
131 -9 152 6 16 12 19 29 22 125 4 107 3 111 -22 136 -20 20 -35 25 -73 24
-26 0 -58 -4 -71 -9z m116 -142 l3 -98 -56 0 -55 0 0 93 c0 52 3 97 7 101 4 4
28 6 53 4 l45 -3 3 -97z"/>
<path d="M2524 452 c-6 -4 -43 -50 -82 -103 -47 -63 -72 -105 -72 -122 0 -27
0 -27 75 -27 68 0 75 -2 75 -20 0 -15 7 -20 25 -20 20 0 25 5 25 24 0 13 -7
29 -15 36 -8 7 -15 16 -15 21 0 5 7 9 15 9 12 0 15 18 15 105 0 93 -2 105 -17
105 -10 0 -23 -4 -29 -8z"/>
<path d="M2905 448 c-27 -15 -35 -28 -35 -60 0 -23 4 -28 25 -28 20 0 25 5 25
26 0 24 2 25 53 22 79 -5 75 -26 -23 -123 -53 -53 -80 -87 -80 -102 0 -27 16
-29 42 -6 17 15 18 15 18 0 0 -14 12 -17 76 -17 72 0 75 1 72 23 -3 20 -9 22
-67 25 l-63 3 66 69 c76 78 85 112 41 155 -20 20 -34 25 -77 25 -29 0 -62 -6
-73 -12z"/>
</g>
</svg>
