<?xml version="1.0" standalone="no"?>
<!DOCTYPE svg PUBLIC "-//W3C//DTD SVG 20010904//EN"
 "http://www.w3.org/TR/2001/REC-SVG-20010904/DTD/svg10.dtd">
<svg version="1.0" xmlns="http://www.w3.org/2000/svg"
 width="840.000000pt" height="391.000000pt" viewBox="0 0 840.000000 391.000000"
 preserveAspectRatio="xMidYMid meet">
<metadata>
Created by potrace 1.16, written by Peter Selinger 2001-2019
</metadata>
<g transform="translate(0.000000,391.000000) scale(0.100000,-0.100000)"
fill="#000000" stroke="none">
<path d="M5349 3722 c-64 -103 -169 -270 -234 -372 -65 -102 -195 -308 -289
-457 -94 -150 -182 -291 -196 -312 -88 -139 -255 -403 -399 -631 -91 -146
-222 -353 -290 -460 -68 -107 -181 -287 -252 -400 -71 -113 -137 -215 -147
-227 l-17 -22 -996 -3 -996 -3 50 80 c27 44 85 134 127 200 42 66 105 165 139
220 35 55 72 115 84 132 l22 33 655 0 655 0 95 150 c52 83 148 234 212 337 65
102 140 221 168 264 27 43 50 84 50 90 0 9 -92 11 -382 6 -211 -4 -891 -7
-1513 -7 l-1130 0 -73 -118 c-66 -105 -208 -330 -384 -607 -35 -55 -65 -103
-66 -107 -2 -4 154 -8 346 -8 l351 0 -88 -137 c-48 -76 -127 -202 -177 -281
-49 -78 -100 -160 -114 -181 -324 -511 -559 -886 -560 -893 0 -5 906 -8 2013
-8 l2014 0 109 175 c131 212 79 128 539 860 209 333 387 616 395 629 8 13 92
146 185 295 94 149 180 288 192 308 12 21 27 38 33 38 7 0 61 -76 120 -170
125 -195 323 -514 328 -526 2 -5 -86 -9 -195 -9 l-200 0 -33 -52 c-18 -29 -52
-82 -75 -118 -23 -36 -92 -146 -154 -245 -62 -99 -146 -232 -186 -295 -41 -63
-74 -121 -74 -127 -1 -10 152 -13 733 -13 l735 0 113 -180 c62 -99 169 -268
237 -375 l124 -195 504 0 c276 0 503 3 503 8 0 6 -139 228 -375 597 -149 234
-548 863 -657 1035 -60 96 -159 252 -218 345 -60 94 -165 260 -235 370 -204
323 -334 528 -463 730 -119 187 -309 488 -448 708 -39 61 -77 113 -85 114 -8
2 -60 -71 -130 -185z"/>
<path d="M2730 3852 l-1015 -3 -105 -169 c-124 -200 -119 -193 -282 -453 -71
-112 -128 -207 -128 -210 0 -4 719 -7 1598 -7 l1599 0 117 188 c65 103 183
290 262 417 79 126 144 233 144 237 0 4 -264 7 -587 6 -324 -2 -1045 -4 -1603
-6z"/>
<path d="M7980 215 c0 -21 5 -25 30 -25 l30 0 0 -85 c0 -84 0 -85 25 -85 25 0
25 1 25 85 l0 85 35 0 c31 0 35 3 35 25 0 25 -1 25 -90 25 -89 0 -90 0 -90
-25z"/>
<path d="M8180 130 l0 -110 25 0 c24 0 25 3 26 63 l0 62 21 -62 c16 -52 24
-63 42 -63 18 0 26 11 43 63 l21 62 1 -62 c1 -56 3 -63 21 -63 19 0 20 7 20
110 l0 110 -29 0 c-23 0 -31 -6 -40 -30 -6 -16 -16 -44 -23 -62 l-12 -31 -12
29 c-7 16 -18 44 -24 62 -11 27 -17 32 -46 32 l-34 0 0 -110z"/>
</g>
</svg>
