<?xml version="1.0" standalone="no"?>
<!DOCTYPE svg PUBLIC "-//W3C//DTD SVG 20010904//EN"
 "http://www.w3.org/TR/2001/REC-SVG-20010904/DTD/svg10.dtd">
<svg version="1.0" xmlns="http://www.w3.org/2000/svg"
 width="35.000000pt" height="35.000000pt" viewBox="0 0 35.000000 35.000000"
 preserveAspectRatio="xMidYMid meet">
<metadata>
Created by potrace 1.16, written by Peter Selinger 2001-2019
</metadata>
<g transform="translate(0.000000,35.000000) scale(0.006836,-0.006836)"
fill="#000000" stroke="none">
<path d="M187 4932 c-147 -147 -188 -194 -185 -211 2 -18 40 15 213 189 175
175 206 210 185 210 -19 0 -69 -44 -213 -188z"/>
<path d="M287 4832 c-227 -227 -288 -294 -285 -311 2 -17 59 35 313 289 255
255 305 310 285 310 -20 0 -89 -64 -313 -288z"/>
<path d="M387 4732 c-307 -307 -388 -393 -385 -411 2 -17 79 55 413 389 335
335 405 410 385 410 -20 0 -109 -84 -413 -388z"/>
<path d="M487 4632 c-388 -388 -488 -493 -485 -511 2 -17 99 74 513 489 415
415 505 510 485 510 -20 0 -129 -104 -513 -488z"/>
<path d="M587 4532 c-468 -468 -588 -593 -585 -611 2 -17 118 94 613 589 495
495 605 610 585 610 -20 0 -149 -124 -613 -588z"/>
<path d="M687 4432 c-548 -548 -688 -693 -685 -711 2 -17 138 114 713 689 575
575 705 710 685 710 -20 0 -169 -144 -713 -688z"/>
<path d="M787 4332 c-629 -629 -788 -793 -785 -811 2 -17 158 133 813 789 655
655 805 810 785 810 -20 0 -189 -164 -813 -788z"/>
<path d="M887 4232 c-709 -709 -888 -893 -885 -911 2 -17 177 153 913 889 735
735 905 910 885 910 -20 0 -209 -184 -913 -888z"/>
<path d="M1860 5004 c-63 -64 -147 -140 -186 -170 -110 -83 -205 -175 -274
-266 -36 -46 -361 -381 -732 -753 -525 -527 -668 -676 -668 -695 0 -20 119 94
621 595 576 575 619 616 591 560 -16 -33 -40 -89 -52 -125 -23 -65 -27 -69
-591 -635 -447 -448 -569 -575 -569 -595 0 -20 105 80 556 530 372 371 554
547 551 530 -3 -14 -11 -55 -17 -91 l-11 -66 -540 -539 c-424 -424 -539 -544
-539 -564 0 -20 100 75 534 509 l534 534 4 -71 3 -72 -537 -538 c-424 -423
-538 -542 -538 -562 0 -20 107 82 568 543 l567 567 75 0 75 0 -643 -643 c-506
-506 -642 -647 -642 -667 0 -20 128 103 668 643 l667 667 75 0 75 0 -743 -743
c-586 -586 -742 -747 -742 -767 0 -20 148 123 768 743 l767 767 75 0 75 0
-843 -843 c-666 -666 -842 -847 -842 -867 0 -20 168 143 868 843 l867 867 75
0 75 0 -943 -943 c-746 -746 -942 -947 -942 -967 0 -20 188 163 968 943 794
794 972 967 993 967 27 0 39 16 39 48 0 10 114 131 253 270 l252 252 55 0 c30
0 60 -4 67 -8 8 -5 -432 -452 -1307 -1327 -1049 -1049 -1320 -1325 -1320
-1345 0 -20 262 237 1345 1320 l1344 1344 56 -19 56 -19 -1400 -1400 c-1113
-1113 -1401 -1406 -1401 -1426 0 -20 171 146 885 860 l885 885 0 -75 0 -75
-885 -885 c-701 -701 -885 -890 -885 -910 0 -20 170 145 885 860 l885 885 0
-75 0 -75 -885 -885 c-701 -701 -885 -890 -885 -910 0 -20 170 145 885 860
l885 885 0 -75 0 -75 -885 -885 c-701 -701 -885 -890 -885 -910 0 -20 170 145
885 860 l885 885 0 -75 0 -75 -885 -885 c-701 -701 -885 -890 -885 -910 0 -20
170 145 885 860 l885 885 0 -75 0 -75 -885 -885 c-701 -701 -885 -890 -885
-910 0 -20 170 145 885 860 l885 885 0 -75 0 -75 -885 -885 c-701 -701 -885
-890 -885 -910 0 -20 170 145 885 860 l885 885 0 -75 0 -75 -857 -857 c-693
-693 -853 -858 -833 -858 20 0 199 174 860 835 l835 835 75 0 75 0 -835 -835
c-675 -675 -830 -835 -810 -835 20 0 199 174 860 835 l835 835 75 0 75 0 -835
-835 c-675 -675 -830 -835 -810 -835 20 0 199 174 860 835 l835 835 75 0 75 0
-154 -154 c-116 -116 -163 -156 -192 -165 -60 -18 -182 -105 -249 -178 -39
-43 -77 -99 -106 -157 -45 -91 -46 -92 -507 -553 -375 -376 -457 -463 -437
-463 19 0 118 93 452 427 l427 427 -6 -80 -5 -79 -347 -347 c-283 -285 -341
-348 -321 -348 19 0 96 72 346 321 l320 320 12 -63 12 -63 -258 -257 c-211
-212 -252 -258 -232 -258 19 0 80 55 262 237 131 130 239 235 240 233 2 -3 13
-25 25 -50 l21 -45 -186 -187 c-156 -157 -183 -188 -162 -188 19 0 66 40 194
169 l169 169 29 -39 c15 -21 28 -42 28 -46 0 -4 -55 -63 -122 -130 -104 -104
-119 -123 -98 -123 18 0 55 30 137 112 l113 113 37 -38 38 -37 -75 -75 c-66
-67 -72 -75 -49 -75 17 0 44 19 89 65 l64 64 35 -21 c57 -34 57 -35 21 -73
l-34 -35 25 0 c15 0 37 12 53 29 l27 28 54 -20 c30 -11 52 -23 50 -27 -3 -4
60 -8 139 -9 127 -1 193 5 261 26 17 5 18 4 6 -11 -12 -14 -11 -16 11 -16 14
0 36 13 54 31 16 17 60 51 97 75 87 56 154 124 211 211 33 50 333 356 1160
1183 886 885 1116 1120 1116 1140 0 20 -213 -188 -1100 -1075 l-1099 -1099 14
54 c8 30 15 71 15 90 0 33 61 96 1085 1120 859 860 1085 1090 1085 1110 0 20
-211 -186 -1079 -1054 l-1078 -1078 -6 38 c-17 98 -102 4 1078 1184 861 861
1085 1090 1085 1110 0 20 -212 -187 -1093 -1067 l-1092 -1093 -19 57 -18 56
1111 1111 c881 881 1111 1116 1111 1136 0 20 -218 -193 -1120 -1095 -615 -615
-1121 -1117 -1123 -1115 -1 3 -15 23 -29 46 l-26 41 1149 1149 c913 913 1149
1154 1149 1174 0 20 -225 -200 -1160 -1135 l-1159 -1159 -35 39 -35 40 1195
1195 c947 948 1194 1200 1194 1220 0 20 -236 -211 -1209 -1184 l-1208 -1208
-42 27 c-22 15 -41 30 -41 34 0 3 562 569 1250 1256 993 993 1250 1255 1250
1275 0 20 -247 -222 -1268 -1243 -697 -697 -1270 -1267 -1273 -1267 -4 0 -28
9 -54 21 l-48 21 1322 1322 c1049 1049 1321 1326 1321 1346 0 20 -262 -237
-1342 -1317 l-1343 -1341 -63 11 -62 12 133 133 132 132 63 0 62 0 0 63 0 62
243 241 c202 201 253 247 307 274 128 64 234 143 361 270 127 126 196 219 278
370 37 68 94 129 636 670 469 469 595 600 595 620 0 20 -109 -84 -581 -555
-320 -319 -578 -571 -575 -560 4 11 18 58 32 105 l25 85 549 550 c433 433 550
555 550 575 0 20 -103 -78 -546 -520 -300 -300 -544 -536 -541 -525 3 11 9 50
12 86 l7 66 534 534 c421 420 534 539 534 559 0 20 -100 -75 -535 -510 l-535
-535 0 75 0 75 535 535 c421 421 535 540 535 560 0 20 -101 -76 -539 -514
l-538 -538 -8 67 -7 68 546 546 c429 429 546 551 546 571 0 20 -104 -79 -548
-523 -301 -301 -550 -547 -553 -547 -3 0 -12 25 -19 56 l-14 55 520 520 c421
421 514 519 494 519 -20 0 -133 -108 -526 -501 l-501 -501 -20 54 -21 53 446
448 c364 364 442 447 422 447 -19 0 -119 -94 -456 -431 l-430 -430 -24 51 -24
51 380 380 c310 310 374 379 354 379 -20 0 -105 -79 -389 -364 l-364 -365 -30
46 -29 46 319 319 c261 261 313 318 293 318 -20 0 -93 -67 -329 -304 l-304
-304 -33 41 -32 42 261 263 c216 216 257 262 237 262 -19 0 -82 -57 -272 -247
l-248 -248 -37 38 -38 37 210 210 c175 175 206 210 185 210 -19 0 -71 -46
-220 -195 -107 -107 -197 -195 -200 -195 -3 0 -23 14 -44 31 l-38 32 163 163
c137 137 160 164 139 164 -19 0 -63 -38 -176 -151 l-151 -151 -42 27 c-22 15
-41 30 -41 34 0 3 53 59 117 123 100 100 114 118 93 118 -18 0 -54 -30 -135
-110 l-111 -111 -48 27 -48 27 83 83 c73 73 80 84 59 84 -17 0 -47 -23 -101
-76 l-76 -76 -44 22 c-24 12 -46 24 -48 26 -3 3 17 27 44 54 45 46 47 50 25
50 -15 0 -41 -17 -70 -45 l-46 -45 -49 16 c-28 9 -52 19 -54 20 -3 2 6 15 19
29 l23 25 -23 0 c-13 0 -33 -9 -45 -20 -19 -18 -26 -19 -82 -8 -34 6 -60 14
-58 18 2 4 -91 8 -208 9 -202 2 -269 -4 -392 -35 l-30 -7 19 22 c19 21 19 21
-5 21 -13 0 -39 -15 -59 -33 -20 -19 -63 -44 -100 -57 -36 -12 -92 -36 -125
-52 l-60 -30 85 86 c74 76 82 86 60 86 -19 0 -55 -30 -140 -116z m365 -1034
c-115 -115 -210 -208 -212 -206 -6 6 27 87 58 146 34 64 108 145 176 191 46
32 147 78 173 79 8 0 -79 -94 -195 -210z m199 -401 l-499 -499 -75 0 -75 0
529 529 529 530 45 -31 44 -31 -498 -498z m560 434 l35 -38 -447 -447 -447
-448 -75 0 -75 0 485 485 c267 267 486 485 487 485 2 0 18 -17 37 -37z m80
-121 l25 -49 -382 -381 -382 -382 -75 0 -75 0 430 430 c236 237 431 430 432
430 2 0 14 -22 27 -48z m53 -161 l6 -53 -299 -299 -299 -299 -75 0 -75 0 360
360 c198 198 363 356 367 352 5 -5 11 -32 15 -61z m6 -143 c-14 -121 -20 -131
-200 -310 -162 -161 -170 -168 -228 -183 -32 -8 -73 -15 -90 -15 -27 0 -7 23
245 275 151 151 276 275 276 275 1 0 0 -19 -3 -42z m-228 -1538 l-190 -190 -3
72 -3 72 93 93 c54 54 101 93 113 94 11 0 52 11 90 24 39 12 74 23 80 24 5 1
-76 -85 -180 -189z m-505 -504 l-135 -134 -78 -5 -79 -4 138 138 139 139 75 0
75 0 -135 -134z"/>
<path d="M3885 1230 c-991 -991 -1225 -1230 -1205 -1230 37 0 2443 2407 2438
2439 -2 17 -240 -216 -1233 -1209z"/>
<path d="M3985 1130 c-911 -911 -1125 -1130 -1105 -1130 37 0 2243 2207 2238
2239 -2 17 -221 -196 -1133 -1109z"/>
<path d="M4085 1030 c-831 -831 -1025 -1030 -1005 -1030 37 0 2043 2007 2038
2039 -2 17 -201 -177 -1033 -1009z"/>
<path d="M4185 930 c-751 -751 -925 -930 -905 -930 37 0 1843 1807 1838 1839
-2 17 -181 -157 -933 -909z"/>
<path d="M4285 830 c-671 -671 -825 -830 -805 -830 37 0 1643 1607 1638 1639
-2 17 -162 -137 -833 -809z"/>
<path d="M4385 730 c-591 -591 -725 -730 -705 -730 37 0 1443 1407 1438 1439
-2 17 -142 -118 -733 -709z"/>
<path d="M4485 630 c-511 -511 -625 -630 -605 -630 37 0 1243 1207 1238 1239
-2 17 -122 -98 -633 -609z"/>
<path d="M4585 530 c-431 -431 -525 -530 -505 -530 37 0 1043 1007 1038 1039
-2 17 -103 -78 -533 -509z"/>
<path d="M4685 430 c-351 -351 -425 -430 -405 -430 37 0 843 807 838 839 -2
17 -83 -59 -433 -409z"/>
<path d="M4785 330 c-271 -271 -325 -330 -305 -330 37 0 643 607 638 639 -2
17 -63 -39 -333 -309z"/>
<path d="M4885 230 c-191 -191 -226 -230 -205 -230 37 0 443 407 438 439 -2
18 -44 -19 -233 -209z"/>
</g>
</svg>
