<?xml version="1.0" standalone="no"?>
<!DOCTYPE svg PUBLIC "-//W3C//DTD SVG 20010904//EN"
 "http://www.w3.org/TR/2001/REC-SVG-20010904/DTD/svg10.dtd">
<svg version="1.0" xmlns="http://www.w3.org/2000/svg"
 width="35px" height="35px" viewBox="0 0 880.000000 949.000000"
 preserveAspectRatio="xMidYMid meet">
<metadata>
Created by potrace 1.16, written by Peter Selinger 2001-2019
</metadata>
<g transform="translate(0.000000,949.000000) scale(0.100000,-0.100000)"
fill="#fff" stroke="none">
<path d="M7470 9075 c-36 -7 -100 -26 -142 -42 -156 -61 -168 -72 -905 -841
-378 -395 -739 -771 -803 -837 -64 -66 -226 -235 -361 -375 -134 -140 -388
-405 -563 -588 l-319 -333 -61 58 c-34 32 -115 111 -181 174 -66 64 -291 280
-500 480 -209 200 -704 675 -1099 1054 -797 764 -820 785 -901 834 -433 261
-1015 26 -1151 -464 -25 -92 -30 -265 -10 -366 21 -106 97 -264 162 -338 27
-30 375 -367 774 -750 399 -382 985 -945 1303 -1250 318 -304 576 -558 575
-562 -2 -5 -393 -415 -869 -911 -1611 -1681 -1824 -1903 -1855 -1943 -47 -61
-91 -144 -119 -225 -128 -378 55 -795 424 -962 80 -37 222 -68 312 -68 152 0
331 57 454 144 42 31 382 378 997 1019 513 535 1126 1174 1362 1420 l429 448
31 -30 c17 -16 612 -586 1321 -1266 792 -759 1315 -1253 1356 -1280 230 -154
522 -173 774 -50 198 96 353 281 411 490 25 92 30 265 10 366 -22 105 -86 244
-152 325 -27 33 -638 624 -1357 1314 -719 689 -1306 1256 -1305 1261 2 4 248
264 548 576 299 312 900 939 1335 1392 434 453 811 851 837 883 121 150 184
377 158 569 -38 278 -207 507 -459 621 -132 61 -318 82 -461 53z"/>
</g>
</svg>
