<?xml version="1.0" standalone="no"?>
<!DOCTYPE svg PUBLIC "-//W3C//DTD SVG 20010904//EN"
 "http://www.w3.org/TR/2001/REC-SVG-20010904/DTD/svg10.dtd">
<svg version="1.0" xmlns="http://www.w3.org/2000/svg"
 width="35px" height="35px" viewBox="0 0 35.000000 35.000000"
 preserveAspectRatio="xMidYMid meet">
<metadata>
Created by potrace 1.16, written by Peter Selinger 2001-2019
</metadata>
<g transform="translate(0.000000,35.000000) scale(0.006836,-0.006836)"
fill="#fff" stroke="none">
<path d="M1125 4359 c-248 -11 -420 -36 -580 -86 -252 -79 -413 -234 -484
-467 -54 -176 -55 -189 -59 -1076 -4 -861 0 -982 39 -1173 44 -217 115 -362
239 -488 200 -203 456 -286 950 -310 148 -7 670 -9 1520 -6 1367 5 1388 5
1610 52 395 83 606 282 699 660 55 221 56 247 56 1175 0 648 -3 876 -13 943
-58 396 -203 586 -527 690 -158 51 -321 74 -612 87 -243 11 -2588 10 -2838 -1z
m1163 -1118 c337 -169 1009 -524 1030 -544 70 -64 68 -161 -5 -228 -33 -31
-1090 -585 -1143 -599 -67 -18 -143 18 -174 84 -14 30 -16 101 -16 634 l0 599
23 34 c12 18 38 44 56 56 55 37 96 31 229 -36z"/>
</g>
</svg>
