<?xml version="1.0" standalone="no"?>
<!DOCTYPE svg PUBLIC "-//W3C//DTD SVG 20010904//EN"
 "http://www.w3.org/TR/2001/REC-SVG-20010904/DTD/svg10.dtd">
<svg version="1.0" xmlns="http://www.w3.org/2000/svg"
 width="35px" height="35px" viewBox="0 0 35.000000 35.000000"
 preserveAspectRatio="xMidYMid meet">
<metadata>
Created by potrace 1.16, written by Peter Selinger 2001-2019
</metadata>
<g transform="translate(0.000000,35.000000) scale(0.005654,-0.007447)"
fill="#fff" stroke="none">
<path d="M2051 4665 c-303 -63 -603 -153 -886 -267 -226 -91 -216 -84 -291
-201 -640 -984 -929 -2048 -864 -3172 15 -263 -2 -228 168 -343 421 -285 789
-468 1271 -633 79 -27 147 -47 152 -44 25 16 208 300 293 458 43 79 46 88 29
94 -124 45 -504 228 -503 243 1 4 77 64 105 82 7 4 63 -15 127 -41 327 -139
712 -238 1072 -276 190 -20 562 -20 752 0 363 38 734 134 1066 276 l117 50 53
-42 c29 -22 54 -45 56 -49 4 -11 -328 -176 -430 -215 -43 -17 -78 -35 -78 -41
0 -14 83 -167 150 -274 55 -90 179 -270 184 -270 16 0 380 131 491 176 301
124 688 336 955 523 l125 87 9 70 c14 111 13 822 -2 954 -46 422 -119 767
-238 1127 -135 409 -367 882 -621 1269 l-67 100 -120 52 c-365 154 -727 262
-1134 336 l-33 6 -81 -166 -82 -166 -45 6 c-202 28 -391 39 -661 39 -277 0
-350 -4 -645 -38 l-50 -6 -80 162 c-44 89 -84 164 -90 165 -5 2 -84 -12 -174
-31z m144 -1950 c247 -65 425 -313 425 -595 0 -270 -167 -517 -399 -591 -357
-114 -721 209 -698 621 12 233 136 433 329 531 94 48 234 62 343 34z m2050 0
c195 -51 360 -227 409 -435 9 -36 16 -108 16 -160 0 -173 -54 -316 -161 -434
-94 -102 -198 -159 -327 -177 -210 -30 -437 105 -540 323 -54 112 -67 173 -66
298 3 181 69 335 194 454 135 127 308 174 475 131z"/>
</g>
</svg>
